<mxfile host="app.diagrams.net" modified="2023-06-06T15:20:10.395Z" agent="Mozilla/5.0 (Windows NT 10.0; Win64; x64) AppleWebKit/537.36 (KHTML, like Gecko) Chrome/114.0.0.0 Safari/537.36" version="21.3.7" etag="rsNEmozZrW2YQVpaWRj3" type="github">
  <diagram name="Page-1" id="uOos-0TGfYiCfMkh2dx7">
    <mxGraphModel>
      <root>
        <mxCell id="0" />
        <mxCell id="1" parent="0" />
      </root>
    </mxGraphModel>
  </diagram>
</mxfile>
